<svg width="86" height="43" viewBox="0 0 86 43" fill="none" xmlns="http://www.w3.org/2000/svg">
<path d="M86 0C86 11.4043 81.4697 22.3415 73.4056 30.4056C65.3415 38.4697 54.4043 43 43 43C31.5957 43 20.6585 38.4697 12.5944 30.4056C4.53035 22.3415 1.722e-06 11.4043 0 7.62939e-06L17.2 3.8147e-06C17.2 6.84259 19.9182 13.4049 24.7566 18.2434C29.5951 23.0818 36.1574 25.8 43 25.8C49.8426 25.8 56.4049 23.0818 61.2434 18.2434C66.0818 13.4049 68.8 6.84259 68.8 0H86Z" fill="#030303"/>
<path d="M67 0C67 6.3652 64.4714 12.4697 59.9706 16.9706C55.4697 21.4714 49.3652 24 43 24C36.6348 24 30.5303 21.4714 26.0294 16.9706C21.5286 12.4697 19 6.3652 19 3.8147e-06L28.6 1.90735e-06C28.6 3.81912 30.1171 7.48182 32.8177 10.1823C35.5182 12.8829 39.1809 14.4 43 14.4C46.8191 14.4 50.4818 12.8829 53.1823 10.1823C55.8829 7.48181 57.4 3.81912 57.4 0H67Z" fill="#030303"/>
<path d="M56 0C56 3.44781 54.6304 6.75442 52.1924 9.19239C49.7544 11.6304 46.4478 13 43 13C39.5522 13 36.2456 11.6304 33.8076 9.19239C31.3696 6.75442 30 3.44782 30 1.90735e-06L35.2 9.53674e-07C35.2 2.06869 36.0218 4.05265 37.4846 5.51543C38.9473 6.97822 40.9313 7.8 43 7.8C45.0687 7.8 47.0527 6.97822 48.5154 5.51543C49.9782 4.05265 50.8 2.06869 50.8 0H56Z" fill="#030303"/>
</svg>
